<svg width="153" xmlns="http://www.w3.org/2000/svg" height="96" viewBox="331 192 153 96" fill="none"><g data-testid="left-cover"><path d="M342.065 192c0 3.997-8.587 7.643-10.995 24.979-.923 6.644 7.659 3.324 5.997 10.991-2.67 12.317-5.061 22.104-1.999 23.481 3.602 1.62 3.168-8.068 6.997-7.494 2.835.425 2.114 2.647.999 7.993-2.217 10.641-8.996 16.986-4.997 24.98.996 1.992 2.272 4.335 5.997 3.996 3.605-.327 1.437-3.216 4.997-4.995 5.998-2.998 35.984 10.991 48.978 11.99 12.994.999.702-7.751 14.993-8.993 16.362-1.422 11.969 4.996 30.986 4.996 19.991 0 8.516-2.879 25.988-4.996 4.518-.547 2.333.999 6.997.999 4.665 0 6.997-.999 6.997-.999" class="fills"/><g class="strokes"><g class="stroke-shape"><defs><linearGradient id="a" x1=".93" y1=".955" x2=".006" y2=".046"><stop offset="0" stop-color="#dc00ff"/><stop offset="1" stop-color="#ffc400"/></linearGradient></defs><path d="M342.065 192c0 3.997-8.587 7.643-10.995 24.979-.923 6.644 7.659 3.324 5.997 10.991-2.67 12.317-5.061 22.104-1.999 23.481 3.602 1.62 3.168-8.068 6.997-7.494 2.835.425 2.114 2.647.999 7.993-2.217 10.641-8.996 16.986-4.997 24.98.996 1.992 2.272 4.335 5.997 3.996 3.605-.327 1.437-3.216 4.997-4.995 5.998-2.998 35.984 10.991 48.978 11.99 12.994.999.702-7.751 14.993-8.993 16.362-1.422 11.969 4.996 30.986 4.996 19.991 0 8.516-2.879 25.988-4.996 4.518-.547 2.333.999 6.997.999 4.665 0 6.997-.999 6.997-.999" style="fill: none; stroke-width: 4; stroke: url(&quot;#a&quot;);"/></g></g></g></svg>