<svg width="94" xmlns="http://www.w3.org/2000/svg" height="94" fill="none"><g data-testid="logo" xml:space="preserve" style="fill: rgb(0, 0, 0);"><g data-testid="svg-path"><defs><linearGradient id="b" x1=".5" y1="0" x2=".5" y2="1"><stop offset="0" stop-color="#dc00ff"/><stop offset="1" stop-color="#ffc400"/></linearGradient><pattern patternUnits="userSpaceOnUse" x="0" y="3.339" width="66.586" height="81.797" patternTransform="rotate(180 33.293 44.238)" id="c"><rect width="66.586" height="81.797" style="fill: url(&quot;#b&quot;);"/></pattern></defs><path d="m36.107 85.136 30.479-54.234-10.373-.03-20.597 35.815L0 3.339v13.538c0 1.042.26 2.068.756 2.984l35.351 65.275Z" fill="url(#c)" class="fills"/></g><g data-testid="svg-path"><defs><linearGradient id="d" x1=".5" y1="0" x2=".5" y2="1"><stop offset="0" stop-color="#dc00ff"/><stop offset="1" stop-color="#ffc400"/></linearGradient><pattern patternUnits="userSpaceOnUse" x="30.29" y="18.191" width="60.671" height="72.47" patternTransform="rotate(180 60.625 54.426)" id="e"><rect width="60.671" height="72.47" style="fill: url(&quot;#d&quot;);"/></pattern></defs><path d="m30.29 18.191 4.564 7.579h40.229l-35.99 64.886 7.922.005a3.137 3.137 0 0 0 2.71-1.557l41.236-70.855-60.671-.058Z" fill="url(#e)" class="fills"/></g><g data-testid="svg-path"><defs><linearGradient id="f" x1=".5" y1="0" x2=".5" y2="1"><stop offset="0" stop-color="#dc00ff"/><stop offset="1" stop-color="#ffc400"/></linearGradient><pattern patternUnits="userSpaceOnUse" x="6.213" y="3.339" width="87.787" height="52.558" patternTransform="rotate(180 50.107 29.618)" id="g"><rect width="87.787" height="52.558" style="fill: url(&quot;#f&quot;);"/></pattern></defs><path d="M94 6.472a3.133 3.133 0 0 0-3.133-3.133H6.213l29.472 52.558 5.221-9.043-11.767-20.366-8.248-13.566H94v-6.45Z" fill="url(#g)" class="fills"/></g></g></svg>