<svg width="95" xmlns="http://www.w3.org/2000/svg" height="95" fill="none"><g data-testid="logo-rounded"><g data-testid="smile"><g data-testid="wave"><g data-testid="Ellipse"><defs><linearGradient id="a" x1="1.174" y1="-.187" x2=".129" y2=".871"><stop offset="0" stop-color="#dc00ff"/><stop offset="1" stop-color="#fffc00" stop-opacity=".98"/></linearGradient><pattern patternUnits="userSpaceOnUse" x="0" y="0" width="95" height="95" id="b"><rect width="95" height="95" style="fill: url(&quot;#a&quot;);"/></pattern></defs><circle cx="47.5" cy="47.5" fill="url(#b)" r="47.5" class="fills"/></g><g data-testid="Ellipse"><circle cx="47.5" cy="47.5" r="39.5" class="fills"/><g class="strokes"><g class="inner-stroke-shape"><defs><clipPath id="d"><use href="#c"/></clipPath><circle cx="47.5" cy="47.5" id="c" style="fill: none; stroke-width: 8; stroke: rgb(0, 0, 0); stroke-opacity: 1;" r="39.5"/></defs><use href="#c" clip-path="url('#d')"/></g></g></g></g></g><g data-testid="logo" xml:space="preserve" style="fill: rgb(0, 0, 0);"><path d="m41.902 68.946 14.266-24.808-4.855-.014-9.64 16.383L25.002 31.53v6.192c0 .477.122.946.354 1.365l16.546 29.859Z" style="fill: rgb(0, 0, 0); fill-opacity: 1;" class="fills" data-testid="svg-path"/><path d="m39.18 38.323 2.136 3.467H60.146L43.3 71.47l3.708.003a1.47 1.47 0 0 0 1.268-.713l19.301-32.41-28.397-.027Z" style="fill: rgb(0, 0, 0); fill-opacity: 1;" class="fills" data-testid="svg-path"/><path d="M69 32.963c0-.792-.656-1.433-1.466-1.433H27.91l13.795 24.041 2.444-4.136-5.508-9.317-3.86-6.205H69v-2.95Z" style="fill: rgb(0, 0, 0); fill-opacity: 1;" class="fills" data-testid="svg-path"/></g></g></svg>