<svg width="95" xmlns="http://www.w3.org/2000/svg" height="95" fill="none"><g data-testid="smile"><g data-testid="wave"><g data-testid="Ellipse"><defs><linearGradient id="a" x1="1.174" y1="-.187" x2=".129" y2=".871"><stop offset="0" stop-color="#dc00ff"/><stop offset="1" stop-color="#fffc00" stop-opacity=".98"/></linearGradient><pattern patternUnits="userSpaceOnUse" x="0" y="0" width="95" height="95" id="b"><rect width="95" height="95" style="fill: url(&quot;#a&quot;);"/></pattern></defs><circle cx="47.5" cy="47.5" fill="url(#b)" r="47.5" class="fills"/></g><g data-testid="Ellipse"><circle cx="47.5" cy="47.5" r="39.5" class="fills"/><g class="strokes"><g class="inner-stroke-shape"><defs><clipPath id="d"><use href="#c"/></clipPath><circle cx="47.5" cy="47.5" id="c" style="fill: none; stroke-width: 4; stroke: rgb(0, 0, 0); stroke-opacity: 1;" r="39.5"/></defs><use href="#c" clip-path="url('#d')"/></g></g></g><g data-testid="Ellipse"><circle cx="48" cy="48" r="27" class="fills"/><g class="strokes"><g class="inner-stroke-shape"><defs><clipPath id="f"><use href="#e"/></clipPath><circle cx="48" cy="48" id="e" style="fill: none; stroke-width: 4; stroke: rgb(0, 0, 0); stroke-opacity: 1;" r="27"/></defs><use href="#e" clip-path="url('#f')"/></g></g></g></g><path d="M57.083 40c-2.159 0-4.781 2.658-5.081 6.478a.735.735 0 0 0 .517.753c.318.1.672-.046.844-.336l.962-2.46c.698-1.242 1.384-2.5 2.5-2.5s2.301 1.258 3 2.5l.978 2.46c.19.336.562.427.843.336a.727.727 0 0 0 .518-.753c-.3-3.82-2.922-6.478-5.081-6.478ZM38.083 40c-2.159 0-4.781 2.658-5.081 6.478a.735.735 0 0 0 .517.753c.318.1.672-.046.844-.336l.962-2.46c.698-1.242 1.384-2.5 2.5-2.5s2.301 1.258 3 2.5l.978 2.46c.19.336.562.427.843.336a.727.727 0 0 0 .518-.753c-.3-3.82-2.922-6.478-5.081-6.478Z" style="fill: rgb(0, 0, 0); fill-opacity: 1;" class="fills" data-testid="smile"/><g data-testid="Path"><path d="M38 57s9 11 19 0" class="fills"/><g class="strokes"><path d="M38 57s9 11 19 0" style="fill: none; stroke-width: 2; stroke: rgb(0, 0, 0); stroke-opacity: 1; stroke-linecap: round;" class="stroke-shape"/></g></g></g></svg>