<svg width="95" xmlns="http://www.w3.org/2000/svg" height="95" fill="none"><g data-testid="think"><g data-testid="smile"><g data-testid="wave"><g data-testid="Ellipse"><defs><linearGradient id="a" x1="1.174" y1="-.187" x2=".129" y2=".871"><stop offset="0" stop-color="#dc00ff"/><stop offset="1" stop-color="#fffc00" stop-opacity=".98"/></linearGradient><pattern patternUnits="userSpaceOnUse" x="0" y="0" width="95" height="95" id="b"><rect width="95" height="95" style="fill: url(&quot;#a&quot;);"/></pattern></defs><circle cx="47.5" cy="47.5" fill="url(#b)" r="47.5" class="fills"/></g><g data-testid="Ellipse"><circle cx="47.5" cy="47.5" r="39.5" class="fills"/><g class="strokes"><g class="inner-stroke-shape"><defs><clipPath id="d"><use href="#c"/></clipPath><circle cx="47.5" cy="47.5" id="c" style="fill: none; stroke-width: 5; stroke: rgb(0, 0, 0); stroke-opacity: 1;" r="39.5"/></defs><use href="#c" clip-path="url('#d')"/></g></g></g><circle cx="35.5" cy="34.5" style="fill: rgb(0, 0, 0); fill-opacity: 1;" r="4.5" class="fills" data-testid="Ellipse"/><circle cx="58.5" cy="37.5" style="fill: rgb(0, 0, 0); fill-opacity: 1;" r="4.5" class="fills" data-testid="Ellipse"/></g></g><g data-testid="svg" class="iconify iconify--emojione-monotone" style="fill: rgb(0, 0, 0);"><path d="M55.195 54.311c-4.338-2.949-9.924-3.91-15.049-2.584-1.35.365-.359 3.523.904 3.201 4.719-1.201 9.277.141 12.143 2.084 1.065.75 3.073-1.955 2.002-2.701Z" style="fill: rgb(0, 0, 0); fill-opacity: 1;" class="fills" data-testid="svg-path"/><path d="M48 19c-15.469 0-28 12.533-28 28-.002 5 1.344 9.909 3.895 14.209-.392.896-.744 1.848-.791 3.047-.01.203-.023.422-.037.654-.135 2.057-.334 5.166 2.416 9.063 1.775 2.512 4.531 4.162 7.969 4.766 1.219.213 2.467.295 3.822.25 2.217-.076 3.773-.156 4.625-1.703.722-1.309-.109-2.135.507-2.856A28.18 28.18 0 0 0 48 75c15.469 0 28-12.533 28-28S63.469 19 48 19Zm-6.989 55.969c.277 1.699-.689 3.305-7.216 2.127-10.741-1.938-10.012-12.1-8.277-15.761 1.274-2.689 1.08-3.833.344-7.171-.669-3.029 5.053-1.658 5.217 1.974.121 2.694-.916 4.068.375 5.253 2.886 2.65 11.213 1.198 16.842.004 2.408-.511 3.646 1.931 1.861 3.175-1.908 1.333-4.139 1.874-7.439 2.116-1.723.125.221.68-.049 2.316-.147.898-1.088.867-1.052 1.801.019.497 1.044 1.02.347 2.27-.207.373-1.133.801-.953 1.896ZM48 72.5c-1.536 0-3.037-.147-4.499-.41a2.71 2.71 0 0 0-.278-.83c-.377-.738 1.498-1.5.736-3.482 2.857-.469 4.982-1.02 6.951-2.139 2.117-1.203 2.188-2.514 2.043-3.188-.246-1.123-1.404-2.049-2.887-2.309a4.164 4.164 0 0 0-1.686.037c-3.125.758-10.604 1.779-14.387 1.115-1.063-.188-1.41-.441-1.508-.541-.549-.551-.445-1.605-.176-3.785.33-2.68-2.078-5.537-4.213-5.912l-.137-.023c-1.178-.148-2.229.191-2.883.934-.732.826-.896 2.061-.453 3.383.349 1.039.428 1.873.36 2.615A25.37 25.37 0 0 1 22.5 47c0-7.028 2.858-13.401 7.473-18.018.079.022.152.022.213-.015a13.282 13.282 0 0 1 11.256-.983c.512.198 1.328-1.683.703-1.92a15.297 15.297 0 0 0-7.538-.752A25.343 25.343 0 0 1 48 21.5c7.063 0 13.464 2.889 18.087 7.544a15.324 15.324 0 0 0-12.929 1.157c-.572.342.557 2.049 1.029 1.768a13.285 13.285 0 0 1 11.256-.986c.429.167 1.06-1.114.89-1.68C70.765 33.893 73.5 40.131 73.5 47c0 14.061-11.439 25.5-25.5 25.5Z" style="fill: rgb(0, 0, 0); fill-opacity: 1;" class="fills" data-testid="svg-path"/></g></g></svg>