<svg width="278" xmlns="http://www.w3.org/2000/svg" height="20.045" viewBox="406 341.955 278 20.045" fill="none"><g data-testid="underline"><path d="M406 351s24.225-7.934 41-3c8.5 2.5 9.5 11 19 10 20.43-2.151 32.571-10.369 49-9 12 1 9 7 18 6 8.843-.983 18-11 50-13 17-.5 29 3 101 20" class="fills"/><g class="strokes"><g class="stroke-shape"><defs><linearGradient id="a" x1=".856" y1=".046" x2=".092" y2=".435"><stop offset="0" stop-color="#dc00ff"/><stop offset="1" stop-color="#ffc400"/></linearGradient></defs><path d="M406 351s24.225-7.934 41-3c8.5 2.5 9.5 11 19 10 20.43-2.151 32.571-10.369 49-9 12 1 9 7 18 6 8.843-.983 18-11 50-13 17-.5 29 3 101 20" style="fill: none; stroke-width: 2; stroke: url(&quot;#a&quot;);"/></g></g></g></svg>