<svg width="95" xmlns="http://www.w3.org/2000/svg" height="95" fill="none"><g data-testid="wave"><g data-testid="Ellipse"><circle cx="47.5" cy="47.5" r="47.5" class="fills"/><g class="strokes"><g class="inner-stroke-shape"><defs><linearGradient id="b" x1=".5" y1="0" x2=".5" y2="1"><stop offset="0" stop-color="#dc00ff"/><stop offset="1" stop-color="#ffc400"/></linearGradient><clipPath id="c"><use href="#a"/></clipPath><circle cx="47.5" cy="47.5" id="a" style="fill: none; stroke-width: 8; stroke: url(&quot;#b&quot;);" r="47.5"/></defs><use href="#a" clip-path="url('#c')"/></g></g></g><g data-testid="svg" style="fill: rgb(0, 0, 0);"><g data-testid="svg-path"><defs><linearGradient id="d" x1=".5" y1="0" x2=".5" y2="1"><stop offset="0" stop-color="#dc00ff"/><stop offset="1" stop-color="#ffc400"/></linearGradient><pattern patternUnits="userSpaceOnUse" x="21.044" y="18.293" width="52.915" height="53.683" id="e"><rect width="52.915" height="53.683" style="fill: url(&quot;#d&quot;);"/></pattern></defs><path d="M44.903 19.614c-.686-1.177-2.688-1.892-4.721-.73-2.026 1.158-2.382 3.199-1.707 4.356l8.103 13.895a2.406 2.406 0 1 1-4.157 2.425L31.617 21.032c-.687-1.178-2.689-1.892-4.722-.73-2.025 1.158-2.381 3.198-1.707 4.356l12.155 20.843a2.406 2.406 0 1 1-4.157 2.424l-5.402-9.263c-.687-1.178-2.688-1.892-4.721-.73-2.026 1.157-2.382 3.198-1.708 4.355L33.51 63.131c5.162 8.852 17.9 11.724 28.703 5.551 10.795-6.17 14.632-18.495 9.482-27.326L63.592 27.46c-.687-1.178-2.688-1.892-4.721-.73-2.026 1.158-2.382 3.198-1.708 4.356l5.403 9.263a2.409 2.409 0 0 1-.885 3.302c-4.949 2.828-6.465 8.297-4.299 12.012a2.406 2.406 0 1 1-4.157 2.424c-2.928-5.022-1.745-11.068 2.037-15.342 1.058-1.195 1.42-2.932.616-4.311l-10.975-18.82Z" fill="url(#e)" stroke="#00000" fill-rule="evenodd" clip-rule="evenodd" class="fills"/></g><g data-testid="svg-g" style="opacity: 0.5; fill: rgb(0, 0, 0);"><g data-testid="svg-path"><defs><linearGradient id="f" x1=".5" y1="0" x2=".5" y2="1"><stop offset="0" stop-color="#dc00ff"/><stop offset="1" stop-color="#ffc400"/></linearGradient><pattern patternUnits="userSpaceOnUse" x="21.965" y="65.97" width="17.621" height="16.02" id="g"><rect width="17.621" height="16.02" style="fill: url(&quot;#f&quot;);"/></pattern></defs><path d="M23.159 66.298a2.406 2.406 0 0 1 3.291.866c2.653 4.55 6.709 7.99 11.71 10.222a2.407 2.407 0 0 1-1.961 4.395c-5.812-2.594-10.688-6.675-13.906-12.193a2.405 2.405 0 0 1 .866-3.29Z" fill="url(#g)" stroke="#00000" fill-rule="evenodd" clip-rule="evenodd" class="fills"/></g><g data-testid="svg-path"><defs><linearGradient id="h" x1=".5" y1="0" x2=".5" y2="1"><stop offset="0" stop-color="#dc00ff"/><stop offset="1" stop-color="#ffc400"/></linearGradient><pattern patternUnits="userSpaceOnUse" x="54.156" y="13.01" width="19.625" height="9.295" id="i"><rect width="19.625" height="9.295" style="fill: url(&quot;#h&quot;);"/></pattern></defs><path d="M69.655 21.583c-3.253-3.322-7.893-4.548-12.434-3.255a2.407 2.407 0 0 1-1.317-4.629c6.218-1.77 12.688-.08 17.189 4.517a2.406 2.406 0 1 1-3.438 3.367Z" fill="url(#i)" stroke="#00000" fill-rule="evenodd" clip-rule="evenodd" class="fills"/></g></g></g></g></svg>